<svg width="319" height="182" viewBox="0 0 319 182" fill="none" xmlns="http://www.w3.org/2000/svg" style="">
<path d="M1.47608 181.055C15.2714 129.954 37.1096 27.1433 118.695 71.7796C140.58 83.7526 159.51 97.2851 159.532 123.005C159.55 143.805 132.543 139.549 123.756 123.148C112.441 102.028 110.411 81.0511 117.159 56.1467C122.971 34.7003 128.666 19.8031 148.336 8.83453C182.343 -10.1284 218.974 9.07353 250.262 35.5552C274.145 55.7691 289.503 69.2787 303.197 90.6449C305.42 94.1132 318.594 116.576 318.469 115.628C316.263 98.874 308.895 74.9971 303.743 58.5037C302.19 53.2235 301.339 49.288 300.028 45.0116C299.071 41.8926 301.571 51.0617 302.19 53.2235C307.497 71.7659 314.23 93.5785 317.995 112.394C320.355 124.185 297.036 113.962 288.407 108.98C274.548 100.979 262.52 94.0343 252.165 89.8542" stroke="white" stroke-linecap="round" stroke-dasharray="6 6" class="ahsmMfmB_0"></path>
<style data-made-with="vivus-instant">.ahsmMfmB_0{stroke-dasharray:880 882;stroke-dashoffset:881;animation:ahsmMfmB_draw_0 7200ms linear 0ms infinite,ahsmMfmB_fade 7200ms linear 0ms infinite;}@keyframes ahsmMfmB_draw{100%{stroke-dashoffset:0;}}@keyframes ahsmMfmB_fade{0%{stroke-opacity:1;}94.44444444444444%{stroke-opacity:1;}100%{stroke-opacity:0;}}@keyframes ahsmMfmB_draw_0{11.11111111111111%{stroke-dashoffset: 881}38.88888888888889%{ stroke-dashoffset: 0;}100%{ stroke-dashoffset: 0;}}</style></svg>
