<svg width="89" height="168" viewBox="0 0 89 168" fill="none" xmlns="http://www.w3.org/2000/svg" style="">
<path d="M46.1089 0.688178C26.0074 18.5136 -15.7739 51.6883 22.9608 78.6684C33.3508 85.9054 43.7814 91.4474 55.4744 85.6409C64.9302 80.9453 56.8884 69.6348 47.4484 69.351C35.2918 68.9856 25.3004 72.8068 15.5094 81.5057C7.07789 88.9968 1.59623 94.9539 1.06026 106.373C0.133669 126.115 17.1438 138.419 36.2536 146.648C50.8403 152.929 60.4527 156.853 73.259 158.244C75.3378 158.47 88.5247 159.377 88.0658 159.534C79.9534 162.321 67.4369 164.372 58.7767 165.761C56.0259 166.249 54.0453 166.753 51.8053 167.124C50.1716 167.395 54.9036 166.457 56.0259 166.249C65.6524 164.468 77.0871 162.594 86.4889 160.05C92.3808 158.456 82.4615 150.171 78.2461 147.377C71.4761 142.889 65.6001 138.993 61.3586 135.233" stroke="#000700" stroke-linecap="round" stroke-dasharray="6 6" class="HnZCekTl_0"></path>
<style data-made-with="vivus-instant">.HnZCekTl_0{stroke-dasharray:447 449;stroke-dashoffset:448;animation:HnZCekTl_draw_0 7200ms linear 0ms infinite,HnZCekTl_fade 7200ms linear 0ms infinite;}@keyframes HnZCekTl_draw{100%{stroke-dashoffset:0;}}@keyframes HnZCekTl_fade{0%{stroke-opacity:1;}94.44444444444444%{stroke-opacity:1;}100%{stroke-opacity:0;}}@keyframes HnZCekTl_draw_0{11.11111111111111%{stroke-dashoffset: 448}38.88888888888889%{ stroke-dashoffset: 0;}100%{ stroke-dashoffset: 0;}}</style></svg>
