<svg width="89" height="168" viewBox="0 0 89 168" fill="none" xmlns="http://www.w3.org/2000/svg" style="">
<path d="M43.3071 0.688178C63.4086 18.5136 105.19 51.6883 66.4552 78.6684C56.0653 85.9054 45.6346 91.4474 33.9416 85.6409C24.4858 80.9453 32.5276 69.6348 41.9676 69.351C54.1242 68.9856 64.1157 72.8068 73.9066 81.5057C82.3381 88.9968 87.8198 94.9539 88.3558 106.373C89.2823 126.115 72.2723 138.419 53.1625 146.648C38.5757 152.929 28.9633 156.853 16.157 158.244C14.0782 158.47 0.891267 159.377 1.3502 159.534C9.46266 162.321 21.9791 164.372 30.6393 165.761C33.3901 166.249 35.3707 166.753 37.6107 167.124C39.2444 167.395 34.5124 166.457 33.3901 166.249C23.7636 164.468 12.3289 162.594 2.92714 160.05C-2.96476 158.456 6.95453 150.171 11.1699 147.377C17.9399 142.889 23.8159 138.993 28.0574 135.233" stroke="#000700" stroke-linecap="round" stroke-dasharray="6 6" class="eTGHPgWX_0"></path>
<style data-made-with="vivus-instant">.eTGHPgWX_0{stroke-dasharray:447 449;stroke-dashoffset:448;animation:eTGHPgWX_draw_0 7200ms linear 0ms infinite,eTGHPgWX_fade 7200ms linear 0ms infinite;}@keyframes eTGHPgWX_draw{100%{stroke-dashoffset:0;}}@keyframes eTGHPgWX_fade{0%{stroke-opacity:1;}94.44444444444444%{stroke-opacity:1;}100%{stroke-opacity:0;}}@keyframes eTGHPgWX_draw_0{11.11111111111111%{stroke-dashoffset: 448}38.88888888888889%{ stroke-dashoffset: 0;}100%{ stroke-dashoffset: 0;}}</style></svg>
